<svg width="56" height="56" viewBox="0 0 56 56" fill="none" xmlns="http://www.w3.org/2000/svg">
<path d="M46.5668 20.2479C46.2842 20.4672 41.2948 23.2786 41.2948 29.5299C41.2948 36.7607 47.6436 39.3187 47.8337 39.382C47.8044 39.538 46.8251 42.8853 44.4863 46.2961C42.4009 49.2975 40.2229 52.294 36.9096 52.294C33.5963 52.294 32.7437 50.3694 28.9188 50.3694C25.1914 50.3694 23.866 52.3574 20.8354 52.3574C17.8047 52.3574 15.6901 49.5801 13.2587 46.1694C10.4424 42.1642 8.16699 35.9421 8.16699 30.0367C8.16699 20.5646 14.3258 15.5411 20.3871 15.5411C23.6078 15.5411 26.2925 17.6558 28.3146 17.6558C30.2392 17.6558 33.2407 15.4144 36.9047 15.4144C38.2934 15.4144 43.2828 15.5411 46.5668 20.2479ZM35.1653 11.4044C36.6806 9.60645 37.7525 7.11176 37.7525 4.61706C37.7525 4.27111 37.7233 3.9203 37.66 3.6377C35.1945 3.73027 32.2613 5.27971 30.4926 7.33102C29.1039 8.90969 27.8079 11.4044 27.8079 13.9332C27.8079 14.3132 27.8712 14.6933 27.9004 14.8151C28.0564 14.8443 28.3097 14.8785 28.5631 14.8785C30.7752 14.8785 33.5574 13.3972 35.1653 11.4044Z" fill="#EFF2F6"/>
</svg>
